<svg xmlns="http://www.w3.org/2000/svg" xmlns:xlink="http://www.w3.org/1999/xlink" viewBox="0 0 934.23 866.94"><defs><style>.cls-1,.cls-13,.cls-17,.cls-18,.cls-19,.cls-20,.cls-22,.cls-25,.cls-33,.cls-34,.cls-6,.cls-7{fill:none;}.cls-2{fill:#b8dde1;}.cls-3{fill:#6c7778;}.cls-11,.cls-4{opacity:0.6;}.cls-11,.cls-5{fill:#aab7b8;}.cls-17,.cls-6{stroke:#aab7b8;}.cls-17,.cls-18,.cls-19,.cls-20,.cls-22,.cls-25,.cls-33,.cls-6,.cls-7{stroke-linecap:round;}.cls-17,.cls-18,.cls-19,.cls-20,.cls-22,.cls-33,.cls-6,.cls-7{stroke-linejoin:round;}.cls-18,.cls-6,.cls-7{stroke-width:4px;}.cls-22,.cls-25,.cls-7{stroke:#00464f;}.cls-8{fill:#879596;}.cls-9{fill:#fff;opacity:0.15;}.cls-10{fill:#fafafa;}.cls-12{fill:#00a4b4;}.cls-13{stroke:#6c7778;}.cls-13,.cls-14,.cls-25,.cls-34{stroke-miterlimit:10;}.cls-13,.cls-25{stroke-width:3px;}.cls-14{fill:#282828;stroke:#98a5a4;stroke-width:5px;}.cls-15{fill:#ffa724;}.cls-16{fill:#ee5d16;}.cls-17,.cls-19,.cls-20,.cls-22,.cls-33{stroke-width:2px;}.cls-18,.cls-20{stroke:#00a4b4;}.cls-19{stroke:#82d8e3;}.cls-21{fill:#feebb7;}.cls-23{fill:#00464f;}.cls-24{fill:#f6cfaf;}.cls-26{fill:#90babe;}.cls-27{fill:#f3d994;}.cls-28{fill:#f1d485;}.cls-29{fill:#d3a96c;}.cls-30{fill:#00393d;}.cls-31{opacity:0.25;}.cls-32{clip-path:url(#clip-path);}.cls-33{stroke:#fafafa;}.cls-34{stroke:#b8dde1;}</style><clipPath id="clip-path"><rect class="cls-1" x="572.83" y="290.5" width="247.22" height="222.75"/></clipPath></defs><g id="Layer_2" data-name="Layer 2"><g id="BG"><path class="cls-2" d="M932.41,568.42C917.29,790.68,575.66,734.83,320.32,734.83S-23,613.8,5,402C26.64,237.63,295.39,153,550.73,153S952.41,274.67,932.41,568.42Z"/></g><g id="Layer_7" data-name="Layer 7"><rect class="cls-3" x="846.47" y="749.01" width="21.77" height="21.77" rx="3.85"/><rect class="cls-3" x="827.47" y="749.01" width="10.89" height="21.77" rx="2.72"/></g><g id="screen"><g class="cls-4"><ellipse class="cls-5" cx="479.6" cy="821.64" rx="423.98" ry="7.17"/><line class="cls-6" x1="242.36" y1="825.16" x2="112.11" y2="848.5"/><line class="cls-6" x1="203.74" y1="821.5" x2="77.36" y2="843.63"/><line class="cls-6" x1="162.49" y1="829.38" x2="198.49" y2="833.31"/><line class="cls-6" x1="130.99" y1="834.44" x2="159.96" y2="839.78"/></g><line class="cls-7" x1="474.39" y1="229.81" x2="505.14" y2="229.81"/><polyline class="cls-7" points="55.77 13.97 652.89 13.97 702.58 24.47 702.89 36.47 55.77 36.47"/><line class="cls-7" x1="129.54" y1="13.97" x2="129.54" y2="35.84"/><line class="cls-7" x1="173.04" y1="13.97" x2="173.04" y2="35.84"/><line class="cls-7" x1="216.55" y1="13.97" x2="216.55" y2="35.84"/><line class="cls-7" x1="86.03" y1="13.97" x2="86.03" y2="35.84"/><line class="cls-7" x1="260.05" y1="13.97" x2="260.05" y2="35.84"/><line class="cls-7" x1="303.56" y1="13.97" x2="303.56" y2="35.84"/><line class="cls-7" x1="347.06" y1="13.97" x2="347.06" y2="35.84"/><line class="cls-7" x1="390.57" y1="13.97" x2="390.57" y2="35.84"/><line class="cls-7" x1="434.07" y1="13.97" x2="434.07" y2="35.84"/><line class="cls-7" x1="477.58" y1="13.97" x2="477.58" y2="35.84"/><line class="cls-7" x1="521.08" y1="13.97" x2="521.08" y2="35.84"/><line class="cls-7" x1="564.59" y1="13.97" x2="564.59" y2="35.84"/><line class="cls-7" x1="608.09" y1="13.97" x2="608.09" y2="35.84"/><line class="cls-7" x1="651.6" y1="13.97" x2="651.6" y2="35.84"/><polyline class="cls-7" points="652.05 36 608.77 14.48 563.9 36.14 521.58 15.16 478.34 35.44 434.82 14.48 389.89 35.44 346.52 14.84 303.39 35.97 259.14 14.84 216.02 36.34 172.52 13.84 129.02 36.34 85.89 14.59 38.27 36.34"/><line class="cls-7" x1="174.39" y1="230.54" x2="174.39" y2="36.91"/><line class="cls-7" x1="205.14" y1="36.91" x2="205.14" y2="230.54"/><line class="cls-7" x1="174.39" y1="186.6" x2="205.14" y2="186.6"/><line class="cls-7" x1="174.39" y1="143.39" x2="205.14" y2="143.39"/><line class="cls-7" x1="174.39" y1="56.98" x2="205.14" y2="56.98"/><line class="cls-7" x1="174.39" y1="100.19" x2="205.14" y2="100.19"/><polyline class="cls-7" points="175.24 228.63 204.58 187.66 175.33 143.41 204.96 100.84 175.33 57.72"/><path class="cls-8" d="M565.26,808.47h-.09c-7.45-7.55-17.14-23.29-20.45-55.31h-63v.24l-.18-.24h-63c-3.31,32-13,47.76-20.45,55.31-32.61-.47-34.39,12-34.39,12h236S597.88,808,565.26,808.47Z"/><path class="cls-3" d="M558.71,800.23c-5.83-9.18-11.59-23.84-14-47.07h-63v.24l-.18-.24h-63a140.33,140.33,0,0,1-6.19,30.26Z"/><path class="cls-8" d="M73.2,226.09H890.25a14.43,14.43,0,0,1,14.43,14.43v508a19.86,19.86,0,0,1-19.86,19.86H73.23a14.55,14.55,0,0,1-14.55-14.55V240.61A14.52,14.52,0,0,1,73.2,226.09Z"/><path class="cls-9" d="M894.27,226.09H771.52C759,246,745,274.92,755.15,291.34c17.78,28.9-194.85,392.52-270.43,411.05S397.29,716.46,404,740.92c3.91,14.36-8.59,22.66-19.57,27.07l.45.35H887.08a17.6,17.6,0,0,0,17.6-17.6V236.51A10.42,10.42,0,0,0,894.27,226.09Z"/><path class="cls-9" d="M904.68,544.45c-53.33,80.15-110,150.08-142.09,157.94-75.57,18.52-87.43,14.07-80.76,38.53,3.92,14.36-8.58,22.66-19.57,27.07l.45.35H886.88a17.79,17.79,0,0,0,17.8-17.79Z"/><rect class="cls-10" x="94.68" y="257.14" width="774" height="427.95"/><ellipse class="cls-11" cx="692.47" cy="861.88" rx="83.67" ry="5.06"/><rect class="cls-12" x="23.02" width="32.44" height="46.13"/><rect class="cls-13" x="94.68" y="257.14" width="774" height="427.95"/></g><g id="Layer_6" data-name="Layer 6"><circle class="cls-14" cx="490.52" cy="240.78" r="5.02"/></g><g id="Ui"><polygon class="cls-15" points="408.01 349.23 410.93 355.15 417.46 356.1 412.74 360.71 413.85 367.22 408.01 364.15 402.17 367.22 403.28 360.71 398.55 356.1 405.09 355.15 408.01 349.23"/><polygon class="cls-15" points="431.82 349.23 434.74 355.15 441.28 356.1 436.55 360.71 437.67 367.22 431.82 364.15 425.98 367.22 427.09 360.71 422.37 356.1 428.9 355.15 431.82 349.23"/><polygon class="cls-15" points="455.63 349.23 458.56 355.15 465.09 356.1 460.36 360.71 461.48 367.22 455.63 364.15 449.79 367.22 450.91 360.71 446.18 356.1 452.71 355.15 455.63 349.23"/><polygon class="cls-15" points="479.45 349.23 482.37 355.15 488.9 356.1 484.17 360.71 485.29 367.22 479.45 364.15 473.6 367.22 474.72 360.71 469.99 356.1 476.52 355.15 479.45 349.23"/><polygon class="cls-16" points="398.55 378.55 398.55 392.16 426.14 392.16 436.84 378.55 398.55 378.55"/><line class="cls-17" x1="398.55" y1="401.53" x2="640.34" y2="401.53"/><line class="cls-18" x1="398.55" y1="335.53" x2="530.33" y2="335.53"/><line class="cls-18" x1="398.55" y1="314.91" x2="560.33" y2="314.91"/><line class="cls-19" x1="398.55" y1="424.66" x2="455.23" y2="424.66"/><line class="cls-19" x1="456.89" y1="386.41" x2="513.57" y2="386.41"/><line class="cls-19" x1="398.55" y1="436.2" x2="416.23" y2="436.2"/><line class="cls-19" x1="398.55" y1="413.1" x2="472.58" y2="413.1"/><line class="cls-20" x1="398.55" y1="454.22" x2="632.58" y2="454.22"/><line class="cls-20" x1="398.55" y1="465.35" x2="632.58" y2="465.35"/><line class="cls-20" x1="398.55" y1="476.47" x2="632.58" y2="476.47"/><line class="cls-20" x1="398.55" y1="487.6" x2="538.58" y2="487.6"/><path class="cls-21" d="M471.73,508a4.86,4.86,0,0,0-3.83-1.9H404a4.86,4.86,0,0,0-3.83,1.9,6.66,6.66,0,0,0-1.48,3.32h-.11V525.1h0a6.71,6.71,0,0,0,1.55,4.1,4.85,4.85,0,0,0,3.83,1.89H467.9a4.85,4.85,0,0,0,3.83-1.89,6.94,6.94,0,0,0,1.59-4.1V511.28h-.07a7,7,0,0,0-1.52-3.32"/><line class="cls-22" x1="420.74" y1="518.58" x2="451.13" y2="518.58"/><path class="cls-21" d="M558.91,508a4.85,4.85,0,0,0-3.83-1.9H491.16a4.86,4.86,0,0,0-3.83,1.9,6.66,6.66,0,0,0-1.48,3.32h-.11V525.1h0a6.71,6.71,0,0,0,1.55,4.1,4.85,4.85,0,0,0,3.83,1.89h63.92a4.84,4.84,0,0,0,3.83-1.89,6.88,6.88,0,0,0,1.6-4.1V511.28h-.08a6.8,6.8,0,0,0-1.52-3.32"/><line class="cls-22" x1="507.93" y1="518.58" x2="538.32" y2="518.58"/><path class="cls-21" d="M646.1,508a4.85,4.85,0,0,0-3.83-1.9H578.35a4.86,4.86,0,0,0-3.83,1.9,6.57,6.57,0,0,0-1.48,3.32h-.11V525.1h0a6.72,6.72,0,0,0,1.56,4.1,4.85,4.85,0,0,0,3.83,1.89h63.92a4.84,4.84,0,0,0,3.83-1.89,6.81,6.81,0,0,0,1.59-4.1V511.28h-.07A6.89,6.89,0,0,0,646.1,508"/><line class="cls-22" x1="595.11" y1="518.58" x2="625.51" y2="518.58"/><line class="cls-20" x1="424.55" y1="559.72" x2="538.58" y2="559.72"/><line class="cls-20" x1="424.55" y1="630.04" x2="538.58" y2="630.04"/><line class="cls-20" x1="424.55" y1="606.6" x2="491.58" y2="606.6"/><line class="cls-20" x1="424.55" y1="583.16" x2="581.58" y2="583.16"/><line class="cls-20" x1="424.55" y1="653.47" x2="649.58" y2="653.47"/><circle class="cls-23" cx="409.92" cy="559.16" r="3.02"/><circle class="cls-23" cx="409.92" cy="582.82" r="3.02"/><circle class="cls-23" cx="409.92" cy="606.48" r="3.02"/><circle class="cls-23" cx="409.92" cy="630.14" r="3.02"/><circle class="cls-23" cx="409.92" cy="653.81" r="3.02"/><rect class="cls-21" x="162.49" y="553.75" width="25.03" height="30.09"/><rect class="cls-21" x="195.96" y="553.75" width="25.03" height="30.09"/><rect class="cls-21" x="229.43" y="553.75" width="25.03" height="30.09"/><rect class="cls-21" x="262.89" y="553.75" width="25.03" height="30.09"/><rect class="cls-21" x="296.36" y="553.75" width="25.03" height="30.09"/><rect class="cls-23" x="254.53" y="508.03" width="32.44" height="9.38"/><rect class="cls-23" x="189.65" y="508.03" width="32.44" height="9.38"/><path class="cls-24" d="M205.52,318.33s-7.88,19.4,17.3,15.89l3.37-9.84s-18.84,8-17.44-6.33"/><path class="cls-24" d="M228.86,455.44s-36.1-24.85-25.31-41.35c14.91-22.78,58.5-26.43,59.34-34.59,1.49-14.34-4.21-24.19-30.09-29.25s-3.94-34-3.94-34l3.66,1.41s-16,20.25,4.5,25.59,38.25,6.47,37.12,20.25,17.16,23.91-14.34,32.91c-24.55,7-49.78,26.71-23.34,36s47.25,5.62,41.06,23.34Z"/><path class="cls-24" d="M286.52,410.44c-32.06,8.44-36.28-13.78-36.28-13.78l10.12-3.1c-.37,9.14,14.91,15.75,21.94,13.5Z"/><path class="cls-24" d="M279.77,331.69c-36-1.41-41.91,15-41.91,15l15,4.08c-5.77-10.12,12.09-14.62,26.58-15.89Z"/><path class="cls-24" d="M173.18,409.88s22.5-3.38,30.37,17.15l6.19-17.15s-17.16-7-35.72-2.25"/><path class="cls-12" d="M126,406.35s-26.89-.18-19.83-6.91,24.38-2.08,30.7-5.13c0,0,0-16.86,30.24-7.09,0,0,27.38-13.39,27.7,7.51,0,0,25.8,11.4-7.6,14.23,0,0-23,1.53-41,5.5C115.05,421.32,126,406.35,126,406.35Z"/><path class="cls-12" d="M280.89,406.22s-9.75-10.31,8.82-11.44c0,0,22.31-19.12,28.31,3.75,0,0,29.06-3.94,24.37,7.88,0,0,50.82,6-9.56,10.31,0,0-18,11.81-34.69.37C298.14,417.09,271,428.53,280.89,406.22Z"/><path class="cls-12" d="M229.52,319s-10.5,7.88-21.56.19c0,0-1.69,9.94-15.94,3.19,0,0,.37,8.62-9.94,2.25,0,0-50.06,14.43-44.06,7.12,8.08-9.84,55.31-24,55.31-24s1.13-14.62,14.44-15.75a51.93,51.93,0,0,1,22.87,3s4.88-6.56,7.32.56c0,0,83.25-13.87,53.25,9.19,0,0,7.68,6-6.75,3.75C284.46,308.53,302.83,324.66,229.52,319Z"/><path class="cls-12" d="M276.58,335.34s-15,6.75-7.12,10.69,10.68-.94,10.68-.94,10.69,6.38,13.88-4.68c0,0,21,7.5,29.06,3.93,11-4.86-10.87-12.37-10.87-12.37s12.18-5.81.75-11.44S283.33,318.84,276.58,335.34Z"/><polygon class="cls-8" points="295.64 509.16 180.98 509.16 150.98 453.75 325.64 453.75 295.64 509.16"/><path class="cls-22" d="M170.43,479.13c13.06,0,13.06,10,26.12,10s13.07-10,26.13-10,13.06,10,26.12,10,13.06-10,26.13-10,13.06,10,26.13,10"/><rect class="cls-17" x="686.77" y="310.75" width="156.09" height="351.84"/><path class="cls-21" d="M822.11,599.66a4.87,4.87,0,0,0-3.84-1.89H711.35a4.85,4.85,0,0,0-3.83,1.89A6.65,6.65,0,0,0,706,603h-.11v5.81h0a6.69,6.69,0,0,0,1.55,4.1,4.86,4.86,0,0,0,3.83,1.9H818.27a4.88,4.88,0,0,0,3.84-1.9,6.91,6.91,0,0,0,1.59-4.1V603h-.08a6.87,6.87,0,0,0-1.51-3.33"/><line class="cls-19" x1="706.47" y1="567.53" x2="807.16" y2="567.53"/><line class="cls-19" x1="706.47" y1="629.41" x2="807.16" y2="629.41"/><line class="cls-19" x1="706.47" y1="534.91" x2="807.16" y2="534.91"/><line class="cls-19" x1="706.47" y1="551.53" x2="748.16" y2="551.53"/><line class="cls-19" x1="706.47" y1="640.78" x2="748.16" y2="640.78"/><line class="cls-19" x1="706.47" y1="518.91" x2="767.16" y2="518.91"/><line class="cls-19" x1="706.47" y1="583.53" x2="823.16" y2="583.53"/><rect class="cls-19" x="702.66" y="331.28" width="124.31" height="153" rx="25.59"/></g><g id="characters"><line class="cls-7" x1="77.14" y1="848.78" x2="119.33" y2="505.66"/><line class="cls-7" x1="153.08" y1="505.66" x2="110.89" y2="848.78"/><line class="cls-7" x1="82.24" y1="813.91" x2="114.83" y2="813.91"/><line class="cls-7" x1="85.24" y1="789.42" x2="117.83" y2="789.42"/><line class="cls-7" x1="87.91" y1="764.93" x2="120.5" y2="764.93"/><line class="cls-7" x1="91.66" y1="740.44" x2="124.25" y2="740.44"/><line class="cls-7" x1="94.29" y1="715.95" x2="126.88" y2="715.95"/><line class="cls-7" x1="97.41" y1="691.46" x2="130" y2="691.46"/><line class="cls-7" x1="99.91" y1="666.97" x2="132.5" y2="666.97"/><line class="cls-7" x1="103.66" y1="642.48" x2="136.25" y2="642.48"/><line class="cls-7" x1="106.66" y1="617.99" x2="139.25" y2="617.99"/><line class="cls-7" x1="108.91" y1="593.5" x2="141.5" y2="593.5"/><line class="cls-7" x1="111.91" y1="574.01" x2="144.5" y2="574.01"/><line class="cls-7" x1="114.91" y1="549.52" x2="147.5" y2="549.52"/><line class="cls-7" x1="117.99" y1="525.03" x2="150.58" y2="525.03"/><line class="cls-25" x1="69.61" y1="532.85" x2="192.75" y2="438.92"/><path class="cls-26" d="M121.17,429.42a6.28,6.28,0,0,1,1.14,2.7l1.89,9.48-1.2-.19c1,4.48.9,11-1.35,11.22l.16,2.16,0,.16c.7,7.35-6.45,9.43-8.22,1.38l-1.7-10.14-.67-14.48,6.89-2.35Z"/><path class="cls-23" d="M121.17,429.42l-7-.43-4.74,1.84q-.12,3.66,2.45,15.36a14.85,14.85,0,0,0,1.91-1.23,12.52,12.52,0,0,0,2.31-2.53,8.82,8.82,0,0,0,1.34-2.2,2.21,2.21,0,0,1-.51-.18,1.81,1.81,0,0,1-.86-1.1,1.55,1.55,0,0,1,.16-1.31,1.77,1.77,0,0,1,1.12-.87,1.43,1.43,0,0,1,.89,0S116.47,430.59,121.17,429.42Z"/><path class="cls-27" d="M121.17,429.42s17.71-6.43,15.28-6.74-20.33,5.69-20.33,5.69Z"/><g id="Layer21_0_FILL" data-name="Layer21 0 FILL"><path class="cls-23" d="M114.07,590.88l4-.75,6.5-39.08c0-1.89-3.41-4.15-5.25-4.11-1.51,0-4,.88-4.59,2.28Z"/></g><g id="Layer22_0_FILL" data-name="Layer22 0 FILL"><path class="cls-23" d="M114.76,490.22c4.62-1.83,6.86-1.07,7.29,2.82L124.63,550c0,2.48-3.49,3.31-5.83,3.4s-3.69-1.1-4.06-3.59l-5.93-46.35a18.66,18.66,0,0,1,.37-7.05A8.78,8.78,0,0,1,114.76,490.22Z"/></g><g id="Layer21_0_FILL-2" data-name="Layer21 0 FILL"><path class="cls-23" d="M134.2,571.16l4.06.75L161,535.62c.8-1.71-.8-3.11-2.15-3.88-2.9-1.76-7.53.26-8.65,1.29C150.19,533,136.83,562.24,134.2,571.16Z"/></g><g id="Layer22_0_FILL-2" data-name="Layer22 0 FILL"><path class="cls-23" d="M110.26,500.25c1-4,5.73-10.45,8.85-8.11L162,532.36c.89,1.42-2,5-3.09,6.47s-2.68,1.47-4.71,0l-36.72-26.24Q108.81,506.22,110.26,500.25Z"/></g><path class="cls-28" d="M106,466.7h0m-3.61-5.12L109.14,506c4,2.36,13.61-1.53,19.6-5.34,2-21.37,3.15-39.36,2.26-39.91-1.35-1.46-4.26-3.51-8.66-5.76l-9,.07S108.56,455.86,102.37,461.58Z"/><path class="cls-29" d="M131.26,466.33l-6-1.45-.09,1.5L130,486C130.69,477.78,131.13,470.84,131.26,466.33Z"/><path class="cls-2" d="M88.41,512.78s-3.68,3.93-3.06,7.08l5.25-4.54.29-2.11Z"/><path class="cls-28" d="M105.86,471.32s-9.52,18.41-10.17,19.15-3.82-1.7-6.92-3.7l13.6-25.19Z"/><path class="cls-28" d="M88.79,486.61l-.38,26.17s2.27,2.16,2.88-.46c.83-3.56,4.49-22.44,4.49-22.44S92.24,485.16,88.79,486.61Z"/><path class="cls-23" d="M117.09,588.22s6.77,2.06,7.09,3.81c0,0-8.57,1-9.37,0a4.77,4.77,0,0,1-.75-1.2Z"/><path class="cls-23" d="M137.66,569s6.41,3.09,6.43,4.87c0,0-8.69-.4-9.34-1.43a4.71,4.71,0,0,1-.55-1.31Z"/><path class="cls-27" d="M109.31,432.2s2,.7,11.86-2.78c0,0-4.19-7.65-10.25-4.75S109.31,432.2,109.31,432.2Z"/><path class="cls-23" d="M204,442.48H175.64a.77.77,0,0,1-.78-.77h0a6.67,6.67,0,0,1,6.67-6.73h27.71a2.63,2.63,0,0,1,1.42,4.85l-2,1.29A8.55,8.55,0,0,1,204,442.48Z"/><path class="cls-26" d="M163.05,462.75a13.1,13.1,0,0,0,11.67-7.59S164,458.39,163.05,462.75Z"/><path class="cls-28" d="M147,478.73,167.11,462s.16-3.12-2.22-1.88c-3.24,1.68-20,11.19-20,11.19S143.64,477.06,147,478.73Z"/><path class="cls-28" d="M146.57,478.6,167.11,462s.16-3.12-2.22-1.88c-3.24,1.68-20,11.19-20,11.19S143.23,476.93,146.57,478.6Z"/><path class="cls-28" d="M131.21,461s14.94,8.73,15.71,9.35,1.5,5-.35,8.22L121.66,465Z"/><path class="cls-2" d="M411.48,176.94s1.83,5.8,4.44,7.66l-1.54-7.87-1.06-1.9Z"/><path class="cls-29" d="M395.68,134.81s4.77,19.22,4.8,20.2-3,2.1-6.61,2.77l-7.41-27.65Z"/><path class="cls-29" d="M393.78,157.65l17.7,19.29s3.12,0,1.77-2.32c-1.84-3.15-12.77-19.61-12.77-19.61S395.3,154.23,393.78,157.65Z"/><line class="cls-25" x1="378.91" y1="90.27" x2="472.99" y2="323.97"/><g id="Layer21_0_FILL-3" data-name="Layer21 0 FILL"><path class="cls-23" d="M323.06,223.92l3.59,1.81L355.78,199c1.18-1.47-.36-5.65-1.84-6.73-1.22-.9-3.7-1.72-5-1Z"/></g><g id="Layer22_0_FILL-3" data-name="Layer22 0 FILL"><path class="cls-23" d="M361.76,156.15c5-.26,6.84,1.18,6,5l-11.17,36.61c-.78,2.35-4.36,2-6.61,1.35s-3.14-2.23-2.69-4.69l4.23-24.9c.56-2.69,1-5.78,2.13-7.42C355.44,159.44,358.68,156.3,361.76,156.15Z"/></g><g id="Layer21_0_FILL-4" data-name="Layer21 0 FILL"><path class="cls-23" d="M374.62,225.32l4.05.74,19.08-29.78c.8-1.71-1-3.38-2.32-4.15-2.89-1.76-6.28-1.55-7.4-.52C388,191.61,377.25,216.4,374.62,225.32Z"/></g><g id="Layer22_0_FILL-4" data-name="Layer22 0 FILL"><path class="cls-23" d="M354.4,163.83c1-4,5.32-8.67,8.44-6.33l36,35c.89,1.43-2,5-3.09,6.47s-2.68,1.47-4.71,0l-32.4-24.79C356.88,170.91,353.43,167.81,354.4,163.83Z"/></g><path class="cls-28" d="M371.37,126.85h0M371,120.6l-17.3,41.5c2.22,4.12,12.42,5.76,19.52,5.61,12.82-17.21,23.13-32,22.65-32.93-.38-1.94-1.8-5.2-4.4-9.42l-7.73-4.62S379.21,118.93,371,120.6Z"/><path class="cls-29" d="M376.32,163.45c3.32-4.49,6.41-8.75,9.11-12.53l-12.19-22.11L369,135.28Z"/><path class="cls-29" d="M377.18,128.25l-4.31-2.35c-.41.07-1.5-5.39-1.92-5.3l-10.26,24.61Z"/><path class="cls-23" d="M333.75,226.07c.3-2-7.18-4.22-7.18-4.22l-3.51,2.07.05,2.17Z"/><path class="cls-23" d="M384.64,226.08c-.25-1.76-6.91-3.78-6.91-3.78l-2.94,2.45-.45,1.34Z"/><path class="cls-26" d="M390.35,124.52c-4.64,5.74-10.61,2.66-6.25-4.34l5.88-8.42,9.65-10.83,6.57,3.14,2.13,2.18a6.52,6.52,0,0,1-1.07,2.72l-5.28,8.1-.73-1c-2.4,3.92-6.43,8.91-9.4,6.64Z"/><path class="cls-23" d="M408.33,106.25l-4.68-5.18-4.68-2q-2.66,2.53-9,12.7a13.71,13.71,0,0,0,2.23.44,12,12,0,0,0,3.42-.18,9.25,9.25,0,0,0,2.5-.64,2.26,2.26,0,0,1-.25-.49,1.82,1.82,0,0,1,.16-1.38,1.54,1.54,0,0,1,1-.83,1.75,1.75,0,0,1,1.41.17,1.35,1.35,0,0,1,.66.61S404.14,103.79,408.33,106.25Z"/><path class="cls-27" d="M408.33,106.25S425.48,114,424,112.11,405.45,102,405.45,102Z"/><path class="cls-27" d="M397.91,99.93s1,1.94,10.42,6.32c0,0,2.35-8.41-4-10.57S397.91,99.93,397.91,99.93Z"/><path class="cls-26" d="M397.08,153.39a13.1,13.1,0,0,0,12.9,5.23S401.22,151.7,397.08,153.39Z"/><path class="cls-28" d="M374.77,149.35,400,156.29s2.65-1.65.27-2.9c-3.23-1.69-20.59-10-20.59-10S374.24,145.65,374.77,149.35Z"/><path class="cls-28" d="M374.64,148.94,400,156.29s2.65-1.65.27-2.9c-3.23-1.69-20.59-10-20.59-10S374.11,145.23,374.64,148.94Z"/><path class="cls-28" d="M380.28,126.28s1.38,17.26,1.32,18.24-3.28,4.11-7,4.42L371,120.6Z"/><polygon class="cls-15" points="473.55 314.83 476.47 320.76 483.01 321.71 478.28 326.31 479.39 332.82 473.55 329.75 467.71 332.82 468.82 326.31 464.1 321.71 470.63 320.76 473.55 314.83"/><path class="cls-2" d="M647.27,712.48l.62,10.26c.91,8.2,8.24,6.88,8.32-.5v-.17l.06-2.16q3.39.09,2.56-6.76l1.18.32-.93-13.89a6.32,6.32,0,0,0-.84-2.8l-9.94,1.16Z"/><path class="cls-23" d="M653.88,699.09c2.6.28,3.37.94,2.3,2a8.59,8.59,0,0,0-1.6,2.68,1.36,1.36,0,0,0-.89-.08,1.81,1.81,0,0,0-1.21.75,1.59,1.59,0,0,0-.29,1.29,1.79,1.79,0,0,0,.74,1.17,2.23,2.23,0,0,0,.49.24,9.3,9.3,0,0,1-1.56,2.05,12.41,12.41,0,0,1-2.57,2.27,15.31,15.31,0,0,1-2,1q-2.26-20.12.75-16.61,18.83-4.62,10.22.91Q656.53,697.79,653.88,699.09Z"/><path class="cls-2" d="M665.34,773.5s.24,5.38-2.28,7.36L662,774l1.16-1.79Z"/><path class="cls-23" d="M680.86,752.85l-15.71,20.94s-3.11.31-2-2.13c1.52-3.32,10.17-20.5,10.17-20.5S679,749.6,680.86,752.85Z"/><path class="cls-23" d="M680.7,752.45l-15.55,21.34s-3.11.31-2-2.13c1.52-3.32,10.17-20.5,10.17-20.5S678.86,749.19,680.7,752.45Z"/><path class="cls-23" d="M663.75,770.65,673,860.07h2.25s.75,1.69-4.32,3.19l-19.68-90.08"/><path class="cls-23" d="M643.76,770.65l-9.23,89.42h-2.25s-.75,1.69,4.31,3.19l19.69-90.08"/><path class="cls-23" d="M643.76,770.65c.49,4.11,3.89,15.91,10.29,14.8,6.7-.57,10.87-6.94,9.7-14.8Z"/><path class="cls-23" d="M640.82,734.13h0M637.2,729l6.56,41.64c4,2.36,14,3.81,20,0,2-21.37,3-41.89,2.08-42.44-1.34-1.47-4.25-3.51-8.66-5.76l-9,.06S643.39,723.29,637.2,729Z"/><path class="cls-30" d="M664.66,760.15c.69-8.56,1.16-16.42,1.38-22.2l-3.65,0Z"/><path class="cls-2" d="M640.5,774.19s-.2,5.37,2.33,7.34l1-6.86-1.17-1.79Z"/><path class="cls-23" d="M640.69,738.74s-9.23,15.48-9.88,16.22-4.11,1.24-7.2-.77L637.2,729Z"/><path class="cls-23" d="M623.61,754.19l16.89,20s3.12.13,1.86-2.24c-1.71-3.23-11.34-19.88-11.34-19.88S625.26,750.84,623.61,754.19Z"/><path class="cls-23" d="M640.69,738.74s-8.23,15.48-8.88,16.22-5.11,1.24-8.2-.77L637.2,729Z"/><path class="cls-23" d="M623.61,754.19l16.89,20s3.12.13,1.86-2.24c-1.71-3.23-11.34-19.88-11.34-19.88S625.26,750.84,623.61,754.19Z"/><polygon class="cls-30" points="649.28 766.7 648.58 773.45 650.69 772.04 649.28 766.7"/><polygon class="cls-30" points="653.5 766.13 654.21 772.04 655.89 771.34 653.5 766.13"/><polygon class="cls-30" points="653.55 785.54 646.91 780.06 651.58 794.61 653.55 785.54"/><path class="cls-23" d="M662.39,738s9.46,14.49,10.11,15.23,5.11,1.24,8.2-.76l-14.83-24.2Z"/><path class="cls-2" d="M736.89,774.24s.23,5.38-2.28,7.37l-1-6.86,1.16-1.79Z"/><path class="cls-2" d="M752.4,753.6l-15.7,20.93s-3.11.32-2-2.13c1.52-3.32,10.17-20.49,10.17-20.49S750.56,750.34,752.4,753.6Z"/><path class="cls-28" d="M733.93,738.72s9.47,14.49,10.12,15.23,5.1,1.24,8.2-.76L737.42,729Z"/><path class="cls-2" d="M692.87,713.07s-5-1.35-4.63-7.44c.06-1-1.87-3.82-1.8-4.91C686.44,700.72,694.15,708.79,692.87,713.07Z"/><path class="cls-2" d="M699.42,735l-9.72-24.56s1.4-2.79,2.86-.54c2,3.06,11.1,19,11.1,19S703.16,735.16,699.42,735Z"/><path class="cls-28" d="M721.44,727.23s-17.31.25-18.28.41-3.78,3.65-3.74,7.34l28.38.4Z"/><g id="Layer6_0_FILL" data-name="Layer6 0 FILL"><path class="cls-2" d="M727.68,710.3a14.58,14.58,0,0,1-3.45-2.37,10.75,10.75,0,0,1-1.76-2.25q-.79.52-1.53,1.11c-.94.78-1.39-1-2.1-.13-.08.59-.5,3.78-.51,4.42,0,1,0,1.88.07,2.72a19.16,19.16,0,0,0,.92,4.27,2.45,2.45,0,0,0,1.56,1.6,4.07,4.07,0,0,0,2.33-.31,16.84,16.84,0,0,0,1.76-.78,11.55,11.55,0,0,1-.48,1.48,53,53,0,0,1-2.72,6l0,0q-2.89,8-1.76,8.19l9.47-2.58Z"/></g><path class="cls-23" d="M714.88,770.78l-9.23,89.42H703.4s-.75,1.68,4.31,3.18l19.69-90.07"/><path class="cls-23" d="M734.88,770.78l9.23,89.42h2.25s.75,1.68-4.31,3.18l-19.69-90.07"/><path class="cls-23" d="M734.88,770.78c-.49,4.1-3.9,15.9-10.29,14.79-6.7-.57-10.88-6.94-9.71-14.79Z"/><path class="cls-28" d="M711.92,776.57s15.57.94,22.88-4.87l.94-40.32-5.63-5.81L719.61,728Z"/><path class="cls-28" d="M719.47,730.21s-10,7.88-2.25,13.78l3.8-11Z"/><polygon class="cls-30" points="725.08 785.67 731.73 780.18 727.05 794.74 725.08 785.67"/><g id="Layer1_0_FILL" data-name="Layer1 0 FILL"><path class="cls-23" d="M735.09,696.93c9.68,3.84,1.08,14.56,6.87,19.23,10.77,5.46-4.39,9.18-1.69,14.62,10,11.82,16.73,35.72-14.06,25.13-17.08-7.78,1.4-16.43-7.5-31.69-2.78-4.77,8.18-8.43,4.55-13.14C706.83,700.8,720.62,692,735.09,696.93Z"/></g></g><g id="tree"><rect class="cls-31" x="557.72" y="297.9" width="254.44" height="223.96"/><line class="cls-22" x1="694.52" y1="47.66" x2="694.52" y2="187.47"/><polygon class="cls-22" points="694.52 187.91 591.22 282.91 797.82 282.91 694.52 187.91"/><rect class="cls-12" x="687.2" y="38.5" width="13.38" height="9.16"/><ellipse class="cls-12" cx="694.09" cy="189.06" rx="7.03" ry="7"/><rect class="cls-12" x="788.52" y="278.77" width="11.91" height="12.97"/><rect class="cls-12" x="588.19" y="278.77" width="11.91" height="12.97"/><g class="cls-32"><rect class="cls-2" x="567.72" y="285.9" width="257.44" height="231.96"/><path class="cls-8" d="M728.08,492.72s26.86-3.24,33.47,6.19c5.57,7.94,5.34,9.56,12.09,7.87l7,10.41,46.4,2-2.25-34s-26.44-14.35-27.28-20,2-23.07,2-23.07L782.64,446s-3.93,29.53,2.82,30.66,11.81-3.66,11.25.84-5.07,9.28,3.93,11.25c0,0-16.31,4.5-20.81,1.69s-11.53-9.84-23.9-4.78c0,0-11.82-6.19-17.44-3.38"/><line class="cls-18" x1="602.83" y1="327.53" x2="688.61" y2="327.53"/><line class="cls-18" x1="602.83" y1="341.41" x2="666.61" y2="341.41"/><line class="cls-33" x1="602.83" y1="355.66" x2="634.51" y2="355.66"/><path class="cls-12" d="M832.14,351.25s-7.31-14.34-19.12,1.41c0,0,5.62-15.75-16.88-2.25,0,0-3.81-14.45-15.18-9.28-9.28,4.21-7.32,12.37-7.32,12.37s-9.93-10-16.59-11.25c-7.18-1.31-14.62,2.81-3.94,16.88,0,0-30.65,1.4-18.84,10.12,0,0-8.44-.28-2,5.91,0,0-76.22,17.43-51.75,33.18,0,0-28.12-2.81-28.69,11.54,0,0-56.25-4.22-41.34,34,0,0-21.09,3.37-16.59,13.5,0,0-19.69-2-25.32,12.37l2,41.06,113.63-3.93s5.62-5.91,1.68-13.5c0,0,53.72-.85,58.22-23.91,0,0,42.75-7.59,41.91-28.41,0,0,11.25,7.32,14.34-3.37,0,0,16.32,13.5,25.32-16Z"/><path class="cls-34" d="M626.83,498.45c-11.62-11.25,20.25-11.62,20.25-11.62s-5.06-6.86,4.69-4.24"/><path class="cls-34" d="M667.33,443.33S661,429.45,697,433.2"/><path class="cls-34" d="M790,427.58s-45-1.88-36.38,13.12c0,0-54-.37-31.12,16.13"/></g></g></g></svg>