<?xml version="1.0" encoding="utf-8"?>
<!-- Generator: Adobe Illustrator 24.0.3, SVG Export Plug-In . SVG Version: 6.00 Build 0)  -->
<svg version="1.1" id="Layer_1" xmlns="http://www.w3.org/2000/svg" xmlns:xlink="http://www.w3.org/1999/xlink" x="0px" y="0px"
	 viewBox="0 0 80 80" style="enable-background:new 0 0 80 80;" xml:space="preserve">
<style type="text/css">
	.st0{fill:#B2E5F6;}
	.st1{fill:#232F3E;}
	.st2{enable-background:new    ;}
	.st3{clip-path:url(#SVGID_2_);}
	.st4{clip-path:url(#SVGID_4_);}
	.st5{clip-path:url(#SVGID_6_);fill:#232F3E;}
	.st6{display:none;}
	.st7{display:inline;}
</style>
<g>
	<path class="st0" d="M79.44,26.71c-1.1-2.67-3.87-4.31-6.79-6.05c-1.87-1.12-3.81-2.27-5.27-3.73c-1.54-1.53-2.73-3.52-3.89-5.45
		c-1.73-2.87-3.36-5.58-5.88-6.62c-0.82-0.34-1.74-0.51-2.82-0.51c-1.87,0-3.88,0.5-6.02,1.03c-2.19,0.54-4.44,1.1-6.6,1.1
		c-2.06,0-4.23-0.55-6.33-1.09c-2.19-0.56-4.22-1.07-6.15-1.07c-1.12,0-2.09,0.18-2.97,0.54c-2.71,1.12-4.37,3.92-6.14,6.88
		c-1.12,1.87-2.27,3.81-3.73,5.28c-1.53,1.55-3.51,2.76-5.43,3.94c-2.89,1.78-5.61,3.46-6.65,6.02c-1.01,2.49-0.23,5.51,0.59,8.71
		c0.56,2.18,1.13,4.43,1.14,6.59c0.01,2.05-0.55,4.22-1.08,6.33c-0.84,3.28-1.63,6.36-0.54,8.99c1.07,2.59,3.78,4.19,6.64,5.89
		c1.89,1.12,3.81,2.26,5.24,3.71c1.52,1.54,2.68,3.54,3.8,5.48c1.65,2.83,3.2,5.5,5.62,6.55c0.88,0.38,1.89,0.57,3.06,0.57
		c1.87,0,3.87-0.46,6-0.95c2.17-0.5,4.4-1.02,6.55-1.02h0.11c2.06,0.02,4.24,0.57,6.36,1.1c2.21,0.56,4.28,1.08,6.25,1.08
		c1.16,0,2.16-0.18,3.07-0.56c2.67-1.1,4.31-3.87,6.05-6.8c1.12-1.88,2.27-3.81,3.72-5.27c1.53-1.54,3.52-2.74,5.45-3.9
		c2.87-1.73,5.57-3.36,6.62-5.88c1.04-2.52,0.28-5.59-0.52-8.84c-0.54-2.19-1.1-4.44-1.1-6.61c0-2.07,0.56-4.25,1.09-6.36
		C79.75,32.49,80.54,29.37,79.44,26.71z M42.17,71.62c-16.24,0-29.45-13.22-29.45-29.46c0-16.25,13.21-29.47,29.45-29.47
		s29.45,13.22,29.45,29.47C71.62,58.4,58.41,71.62,42.17,71.62z"/>
</g>
<g>
	<path class="st1" d="M77.86,39.99c0-1.77,0.49-3.71,1.01-5.76c0.85-3.35,1.81-7.14,0.42-10.51c-1.4-3.37-4.76-5.37-7.72-7.14
		c-1.82-1.08-3.54-2.11-4.79-3.35c-1.33-1.33-2.4-3.1-3.53-4.98c-1.84-3.05-3.74-6.21-6.96-7.54c-1.11-0.46-2.32-0.69-3.68-0.69
		c-2.14,0-4.39,0.56-6.59,1.1c-2.12,0.52-4.12,1.02-5.99,1.02c-1.76,0-3.69-0.49-5.76-1.02C32.09,0.57,29.83,0,27.59,0
		c-1.42,0-2.67,0.23-3.83,0.71c-3.41,1.41-5.43,4.81-7.22,7.82c-1.09,1.82-2.11,3.54-3.36,4.8c-1.32,1.34-3.09,2.42-4.97,3.58
		c-3.07,1.89-6.24,3.84-7.56,7.1c-1.29,3.19-0.39,6.72,0.49,10.13c0.54,2.12,1.06,4.12,1.06,5.99c0.01,1.75-0.48,3.67-1.01,5.74
		c-0.85,3.31-1.8,7.06-0.42,10.4c1.36,3.29,4.66,5.25,7.59,6.98c1.81,1.07,3.52,2.08,4.74,3.32c1.3,1.32,2.34,3.1,3.44,4.99
		c1.75,3.02,3.57,6.14,6.69,7.48c1.18,0.51,2.48,0.76,3.96,0.76c2.12,0,4.35-0.51,6.52-1.01c2.23-0.51,4.22-0.94,6.07-0.95
		c1.78,0.01,3.73,0.51,5.82,1.03c2.21,0.56,4.5,1.13,6.77,1.13c1.46,0,2.75-0.24,3.93-0.73c3.37-1.39,5.37-4.76,7.13-7.73
		c1.08-1.82,2.1-3.54,3.35-4.79c1.32-1.33,3.09-2.39,4.98-3.54c3.05-1.84,6.2-3.74,7.53-6.96c1.33-3.21,0.45-6.79-0.41-10.25
		C78.35,43.88,77.86,41.87,77.86,39.99z M76.62,46.57c0.8,3.24,1.56,6.29,0.52,8.8s-3.73,4.13-6.59,5.86
		c-1.92,1.16-3.89,2.35-5.42,3.88c-1.45,1.45-2.6,3.38-3.71,5.24c-1.73,2.92-3.37,5.67-6.02,6.77c-0.9,0.37-1.91,0.56-3.06,0.56
		c-1.96,0-4.03-0.52-6.22-1.08c-2.1-0.53-4.28-1.08-6.33-1.09h-0.11c-2.14,0-4.36,0.51-6.52,1.01c-2.12,0.49-4.12,0.95-5.98,0.95
		c-1.17,0-2.17-0.18-3.05-0.56c-2.42-1.04-3.96-3.7-5.6-6.52c-1.12-1.93-2.28-3.92-3.79-5.45c-1.43-1.45-3.34-2.58-5.22-3.7
		c-2.85-1.69-5.54-3.28-6.61-5.86c-1.08-2.62-0.3-5.69,0.53-8.95c0.53-2.09,1.08-4.26,1.08-6.3c-0.01-2.16-0.58-4.4-1.14-6.57
		c-0.82-3.19-1.59-6.2-0.58-8.68c1.03-2.55,3.75-4.22,6.62-5.99c1.91-1.17,3.88-2.39,5.41-3.92c1.45-1.46,2.6-3.39,3.71-5.26
		c1.76-2.95,3.41-5.73,6.11-6.85c0.87-0.36,1.84-0.54,2.95-0.54c1.92,0,3.94,0.52,6.12,1.07c2.09,0.53,4.25,1.08,6.3,1.08
		c2.15,0,4.39-0.55,6.57-1.09c2.13-0.53,4.13-1.02,5.99-1.02c1.07,0,1.99,0.17,2.81,0.5c2.51,1.04,4.13,3.73,5.85,6.59
		c1.15,1.92,2.35,3.9,3.88,5.42c1.46,1.46,3.38,2.6,5.25,3.71c2.91,1.73,5.66,3.37,6.76,6.02c1.1,2.65,0.31,5.76-0.52,9.05
		c-0.53,2.1-1.09,4.27-1.09,6.33C75.53,42.15,76.08,44.39,76.62,46.57z"/>
	<path class="st1" d="M40.03,10.65c-16.17,0-29.32,13.16-29.32,29.34s13.16,29.34,29.32,29.34s29.32-13.16,29.32-29.34
		S56.2,10.65,40.03,10.65z M40.03,67c-14.89,0-27-12.12-27-27.01s12.11-27.01,27-27.01s27,12.12,27,27.01S54.92,67,40.03,67z"/>
	<g class="st2">
		<g>
			<g>
				<defs>
					<rect id="SVGID_1_" x="25.63" y="28.81" width="28.95" height="22"/>
				</defs>
				<clipPath id="SVGID_2_">
					<use xlink:href="#SVGID_1_"  style="overflow:visible;"/>
				</clipPath>
				<g class="st3">
					<g>
						<defs>
							<path id="SVGID_3_" d="M49.7,30.56L35.29,44.97l-5.24-5.24c-0.9-0.9-2.37-0.9-3.27,0s-0.9,2.37,0,3.27l6.88,6.88
								c0.45,0.45,1.04,0.68,1.64,0.68c0.59,0,1.19-0.23,1.64-0.68l16.05-16.05c0.9-0.9,0.9-2.37,0-3.27
								C52.07,29.66,50.6,29.66,49.7,30.56"/>
						</defs>
						<clipPath id="SVGID_4_">
							<use xlink:href="#SVGID_3_"  style="overflow:visible;"/>
						</clipPath>
						<g class="st4">
							<g>
								<defs>
									<rect id="SVGID_5_" x="25.63" y="28.81" width="28.95" height="22"/>
								</defs>
								<clipPath id="SVGID_6_">
									<use xlink:href="#SVGID_5_"  style="overflow:visible;"/>
								</clipPath>
								<rect x="20.31" y="24.09" class="st5" width="39.13" height="32.26"/>
							</g>
						</g>
					</g>
				</g>
			</g>
		</g>
	</g>
</g>
<g id="Pound" class="st6">
	<g class="st7">
		<g>
			<g>
				<defs>
					<path id="SVGID_7_" d="M41.72-554.63h0.68c4.01-0.01,18.46-0.15,18.49,0.75c0.3,0.07,0.59,0.24,0.81,0.49
						c0.59,0.66,0.54,1.68-0.12,2.27c-3.66,3.3-5.83,7.42-6.52,12.42c-0.09,0.68-0.59,1.19-1.22,1.34
						c-0.09,0.06-0.18,0.12-0.28,0.16c-3.63,1.63-7.5,2.45-11.5,2.45s-7.87-0.82-11.5-2.45c-0.04-0.02-0.08-0.06-0.13-0.13
						c-0.71-0.09-1.29-0.64-1.39-1.37c-0.69-5-2.86-9.11-6.52-12.42c-0.66-0.59-0.71-1.61-0.12-2.27c0.49-0.55,1.27-0.68,1.9-0.37
						C25.18-554.8,37.91-554.64,41.72-554.63z"/>
				</defs>
				<clipPath id="SVGID_8_">
					<use xlink:href="#SVGID_7_"  style="overflow:visible;"/>
				</clipPath>
			</g>
		</g>
		<g>
			<g>
				<defs>
					<ellipse id="SVGID_9_" cx="42.24" cy="-568.56" rx="26.65" ry="26.76"/>
				</defs>
				<clipPath id="SVGID_10_">
					<use xlink:href="#SVGID_9_"  style="overflow:visible;"/>
				</clipPath>
			</g>
		</g>
		<g>
			<g>
				<defs>
					<path id="SVGID_11_" d="M39.36-543.26c-15.58,0-28.25-12.73-28.25-28.37S23.78-600,39.36-600s28.25,12.73,28.25,28.37
						S54.93-543.26,39.36-543.26z M39.36-596.79c-13.81,0-25.05,11.29-25.05,25.16s11.24,25.16,25.05,25.16s25.05-11.29,25.05-25.16
						S53.17-596.79,39.36-596.79z"/>
				</defs>
				<clipPath id="SVGID_12_">
					<use xlink:href="#SVGID_11_"  style="overflow:visible;"/>
				</clipPath>
			</g>
		</g>
		<g>
			<g>
				<defs>
					<path id="SVGID_13_" d="M39.36-534.78c-4,0-7.87-0.82-11.5-2.45c-0.81-0.36-1.17-1.31-0.81-2.12s1.3-1.17,2.11-0.81
						c3.21,1.44,6.64,2.17,10.19,2.17s6.98-0.73,10.19-2.17c0.81-0.36,1.75,0,2.11,0.81s0,1.76-0.81,2.12
						C47.23-535.6,43.36-534.78,39.36-534.78"/>
				</defs>
				<clipPath id="SVGID_14_">
					<use xlink:href="#SVGID_13_"  style="overflow:visible;"/>
				</clipPath>
			</g>
		</g>
		<g>
			<g>
				<defs>
					<path id="SVGID_15_" d="M39.36-527.39c-3.43,0-6.74-0.82-9.85-2.45c-0.69-0.36-1-1.31-0.69-2.12s1.12-1.18,1.81-0.81
						c2.75,1.44,5.69,2.17,8.73,2.17s5.98-0.73,8.73-2.17c0.69-0.36,1.5,0,1.81,0.81s0,1.76-0.69,2.12
						C46.1-528.21,42.78-527.39,39.36-527.39"/>
				</defs>
				<clipPath id="SVGID_16_">
					<use xlink:href="#SVGID_15_"  style="overflow:visible;"/>
				</clipPath>
			</g>
		</g>
		<g>
			<g>
				<defs>
					<path id="SVGID_17_" d="M39.36-520c-2.38,0-4.75-0.3-7.06-0.9c-0.86-0.22-1.37-1.1-1.15-1.96c0.22-0.86,1.09-1.37,1.95-1.15
						c4.1,1.06,8.43,1.06,12.53,0c0.85-0.22,1.73,0.3,1.95,1.15c0.22,0.86-0.29,1.73-1.15,1.96C44.11-520.3,41.73-520,39.36-520"/>
				</defs>
				<clipPath id="SVGID_18_">
					<use xlink:href="#SVGID_17_"  style="overflow:visible;"/>
				</clipPath>
			</g>
		</g>
		<g>
			<g>
				<defs>
					<path id="SVGID_19_" d="M29.39-539.11c-0.84-5.79-3.5-10.65-7.95-14.49c-0.69-0.6-1.76-0.54-2.38,0.12
						c-0.62,0.67-0.56,1.69,0.13,2.29c3.85,3.33,6.13,7.49,6.86,12.53c0.13,0.89,0.98,1.5,1.9,1.38
						C28.88-537.41,29.52-538.22,29.39-539.11z"/>
				</defs>
				<clipPath id="SVGID_20_">
					<use xlink:href="#SVGID_19_"  style="overflow:visible;"/>
				</clipPath>
			</g>
		</g>
		<g>
			<g>
				<defs>
					<path id="SVGID_21_" d="M48.57-539.11c0.84-5.79,3.5-10.65,7.95-14.49c0.69-0.6,1.76-0.54,2.38,0.12
						c0.62,0.67,0.56,1.69-0.13,2.29c-3.85,3.33-6.13,7.49-6.86,12.53c-0.13,0.89-0.98,1.5-1.9,1.38
						C49.08-537.41,48.44-538.22,48.57-539.11z"/>
				</defs>
				<clipPath id="SVGID_22_">
					<use xlink:href="#SVGID_21_"  style="overflow:visible;"/>
				</clipPath>
			</g>
		</g>
	</g>
</g>
<g id="Yen" class="st6">
	<g class="st7">
		<g>
			<g>
				<defs>
					<path id="SVGID_23_" d="M41.72-554.63h0.68c4.01-0.01,18.46-0.15,18.49,0.75c0.3,0.07,0.59,0.24,0.81,0.49
						c0.59,0.66,0.54,1.68-0.12,2.27c-3.66,3.3-5.83,7.42-6.52,12.42c-0.09,0.68-0.59,1.19-1.22,1.34
						c-0.09,0.06-0.18,0.12-0.28,0.16c-3.63,1.63-7.5,2.45-11.5,2.45s-7.87-0.82-11.5-2.45c-0.04-0.02-0.08-0.06-0.13-0.13
						c-0.71-0.09-1.29-0.64-1.39-1.37c-0.69-5-2.86-9.11-6.52-12.42c-0.66-0.59-0.71-1.61-0.12-2.27c0.49-0.55,1.27-0.68,1.9-0.37
						C25.18-554.8,37.91-554.64,41.72-554.63z"/>
				</defs>
				<clipPath id="SVGID_24_">
					<use xlink:href="#SVGID_23_"  style="overflow:visible;"/>
				</clipPath>
			</g>
		</g>
		<g>
			<g>
				<defs>
					<ellipse id="SVGID_25_" cx="42.24" cy="-568.56" rx="26.65" ry="26.76"/>
				</defs>
				<clipPath id="SVGID_26_">
					<use xlink:href="#SVGID_25_"  style="overflow:visible;"/>
				</clipPath>
			</g>
		</g>
		<g>
			<g>
				<defs>
					<path id="SVGID_27_" d="M39.36-543.26c-15.58,0-28.25-12.73-28.25-28.37S23.78-600,39.36-600s28.25,12.73,28.25,28.37
						S54.93-543.26,39.36-543.26z M39.36-596.79c-13.81,0-25.05,11.29-25.05,25.16s11.24,25.16,25.05,25.16s25.05-11.29,25.05-25.16
						S53.17-596.79,39.36-596.79z"/>
				</defs>
				<clipPath id="SVGID_28_">
					<use xlink:href="#SVGID_27_"  style="overflow:visible;"/>
				</clipPath>
			</g>
		</g>
		<g>
			<g>
				<defs>
					<path id="SVGID_29_" d="M39.36-534.78c-4,0-7.87-0.82-11.5-2.45c-0.81-0.36-1.17-1.31-0.81-2.12s1.3-1.17,2.11-0.81
						c3.21,1.44,6.64,2.17,10.19,2.17s6.98-0.73,10.19-2.17c0.81-0.36,1.75,0,2.11,0.81s0,1.76-0.81,2.12
						C47.23-535.6,43.36-534.78,39.36-534.78"/>
				</defs>
				<clipPath id="SVGID_30_">
					<use xlink:href="#SVGID_29_"  style="overflow:visible;"/>
				</clipPath>
			</g>
		</g>
		<g>
			<g>
				<defs>
					<path id="SVGID_31_" d="M39.36-527.39c-3.43,0-6.74-0.82-9.85-2.45c-0.69-0.36-1-1.31-0.69-2.12s1.12-1.18,1.81-0.81
						c2.75,1.44,5.69,2.17,8.73,2.17s5.98-0.73,8.73-2.17c0.69-0.36,1.5,0,1.81,0.81s0,1.76-0.69,2.12
						C46.1-528.21,42.78-527.39,39.36-527.39"/>
				</defs>
				<clipPath id="SVGID_32_">
					<use xlink:href="#SVGID_31_"  style="overflow:visible;"/>
				</clipPath>
			</g>
		</g>
		<g>
			<g>
				<defs>
					<path id="SVGID_33_" d="M39.36-520c-2.38,0-4.75-0.3-7.06-0.9c-0.86-0.22-1.37-1.1-1.15-1.96c0.22-0.86,1.09-1.37,1.95-1.15
						c4.1,1.06,8.43,1.06,12.53,0c0.85-0.22,1.73,0.3,1.95,1.15c0.22,0.86-0.29,1.73-1.15,1.96C44.11-520.3,41.73-520,39.36-520"/>
				</defs>
				<clipPath id="SVGID_34_">
					<use xlink:href="#SVGID_33_"  style="overflow:visible;"/>
				</clipPath>
			</g>
		</g>
		<g>
			<g>
				<defs>
					<path id="SVGID_35_" d="M29.39-539.11c-0.84-5.79-3.5-10.65-7.95-14.49c-0.69-0.6-1.76-0.54-2.38,0.12
						c-0.62,0.67-0.56,1.69,0.13,2.29c3.85,3.33,6.13,7.49,6.86,12.53c0.13,0.89,0.98,1.5,1.9,1.38
						C28.88-537.41,29.52-538.22,29.39-539.11z"/>
				</defs>
				<clipPath id="SVGID_36_">
					<use xlink:href="#SVGID_35_"  style="overflow:visible;"/>
				</clipPath>
			</g>
		</g>
		<g>
			<g>
				<defs>
					<path id="SVGID_37_" d="M48.57-539.11c0.84-5.79,3.5-10.65,7.95-14.49c0.69-0.6,1.76-0.54,2.38,0.12
						c0.62,0.67,0.56,1.69-0.13,2.29c-3.85,3.33-6.13,7.49-6.86,12.53c-0.13,0.89-0.98,1.5-1.9,1.38
						C49.08-537.41,48.44-538.22,48.57-539.11z"/>
				</defs>
				<clipPath id="SVGID_38_">
					<use xlink:href="#SVGID_37_"  style="overflow:visible;"/>
				</clipPath>
			</g>
		</g>
	</g>
</g>
<g id="Euro" class="st6">
	<g class="st7">
		<g>
			<g>
				<defs>
					<path id="SVGID_39_" d="M41.72-554.63h0.68c4.01-0.01,18.46-0.15,18.49,0.75c0.3,0.07,0.59,0.24,0.81,0.49
						c0.59,0.66,0.54,1.68-0.12,2.27c-3.66,3.3-5.83,7.42-6.52,12.42c-0.09,0.68-0.59,1.19-1.22,1.34
						c-0.09,0.06-0.18,0.12-0.28,0.16c-3.63,1.63-7.5,2.45-11.5,2.45s-7.87-0.82-11.5-2.45c-0.04-0.02-0.08-0.06-0.13-0.13
						c-0.71-0.09-1.29-0.64-1.39-1.37c-0.69-5-2.86-9.11-6.52-12.42c-0.66-0.59-0.71-1.61-0.12-2.27c0.49-0.55,1.27-0.68,1.9-0.37
						C25.18-554.8,37.91-554.64,41.72-554.63z"/>
				</defs>
				<clipPath id="SVGID_40_">
					<use xlink:href="#SVGID_39_"  style="overflow:visible;"/>
				</clipPath>
			</g>
		</g>
		<g>
			<g>
				<defs>
					<ellipse id="SVGID_41_" cx="42.24" cy="-568.56" rx="26.65" ry="26.76"/>
				</defs>
				<clipPath id="SVGID_42_">
					<use xlink:href="#SVGID_41_"  style="overflow:visible;"/>
				</clipPath>
			</g>
		</g>
		<g>
			<g>
				<defs>
					<path id="SVGID_43_" d="M39.36-543.26c-15.58,0-28.25-12.73-28.25-28.37S23.78-600,39.36-600s28.25,12.73,28.25,28.37
						S54.93-543.26,39.36-543.26z M39.36-596.79c-13.81,0-25.05,11.29-25.05,25.16s11.24,25.16,25.05,25.16s25.05-11.29,25.05-25.16
						S53.17-596.79,39.36-596.79z"/>
				</defs>
				<clipPath id="SVGID_44_">
					<use xlink:href="#SVGID_43_"  style="overflow:visible;"/>
				</clipPath>
			</g>
		</g>
		<g>
			<g>
				<defs>
					<path id="SVGID_45_" d="M39.36-534.78c-4,0-7.87-0.82-11.5-2.45c-0.81-0.36-1.17-1.31-0.81-2.12s1.3-1.17,2.11-0.81
						c3.21,1.44,6.64,2.17,10.19,2.17s6.98-0.73,10.19-2.17c0.81-0.36,1.75,0,2.11,0.81s0,1.76-0.81,2.12
						C47.23-535.6,43.36-534.78,39.36-534.78"/>
				</defs>
				<clipPath id="SVGID_46_">
					<use xlink:href="#SVGID_45_"  style="overflow:visible;"/>
				</clipPath>
			</g>
		</g>
		<g>
			<g>
				<defs>
					<path id="SVGID_47_" d="M39.36-527.39c-3.43,0-6.74-0.82-9.85-2.45c-0.69-0.36-1-1.31-0.69-2.12s1.12-1.18,1.81-0.81
						c2.75,1.44,5.69,2.17,8.73,2.17s5.98-0.73,8.73-2.17c0.69-0.36,1.5,0,1.81,0.81s0,1.76-0.69,2.12
						C46.1-528.21,42.78-527.39,39.36-527.39"/>
				</defs>
				<clipPath id="SVGID_48_">
					<use xlink:href="#SVGID_47_"  style="overflow:visible;"/>
				</clipPath>
			</g>
		</g>
		<g>
			<g>
				<defs>
					<path id="SVGID_49_" d="M39.36-520c-2.38,0-4.75-0.3-7.06-0.9c-0.86-0.22-1.37-1.1-1.15-1.96c0.22-0.86,1.09-1.37,1.95-1.15
						c4.1,1.06,8.43,1.06,12.53,0c0.85-0.22,1.73,0.3,1.95,1.15c0.22,0.86-0.29,1.73-1.15,1.96C44.11-520.3,41.73-520,39.36-520"/>
				</defs>
				<clipPath id="SVGID_50_">
					<use xlink:href="#SVGID_49_"  style="overflow:visible;"/>
				</clipPath>
			</g>
		</g>
		<g>
			<g>
				<defs>
					<path id="SVGID_51_" d="M29.39-539.11c-0.84-5.79-3.5-10.65-7.95-14.49c-0.69-0.6-1.76-0.54-2.38,0.12
						c-0.62,0.67-0.56,1.69,0.13,2.29c3.85,3.33,6.13,7.49,6.86,12.53c0.13,0.89,0.98,1.5,1.9,1.38
						C28.88-537.41,29.52-538.22,29.39-539.11z"/>
				</defs>
				<clipPath id="SVGID_52_">
					<use xlink:href="#SVGID_51_"  style="overflow:visible;"/>
				</clipPath>
			</g>
		</g>
		<g>
			<g>
				<defs>
					<path id="SVGID_53_" d="M48.57-539.11c0.84-5.79,3.5-10.65,7.95-14.49c0.69-0.6,1.76-0.54,2.38,0.12
						c0.62,0.67,0.56,1.69-0.13,2.29c-3.85,3.33-6.13,7.49-6.86,12.53c-0.13,0.89-0.98,1.5-1.9,1.38
						C49.08-537.41,48.44-538.22,48.57-539.11z"/>
				</defs>
				<clipPath id="SVGID_54_">
					<use xlink:href="#SVGID_53_"  style="overflow:visible;"/>
				</clipPath>
			</g>
		</g>
	</g>
</g>
<g id="Rupee" class="st6">
	<g class="st7">
		<g>
			<g>
				<defs>
					<path id="SVGID_55_" d="M41.72-554.63h0.68c4.01-0.01,18.46-0.15,18.49,0.75c0.3,0.07,0.59,0.24,0.81,0.49
						c0.59,0.66,0.54,1.68-0.12,2.27c-3.66,3.3-5.83,7.42-6.52,12.42c-0.09,0.68-0.59,1.19-1.22,1.34
						c-0.09,0.06-0.18,0.12-0.28,0.16c-3.63,1.63-7.5,2.45-11.5,2.45s-7.87-0.82-11.5-2.45c-0.04-0.02-0.08-0.06-0.13-0.13
						c-0.71-0.09-1.29-0.64-1.39-1.37c-0.69-5-2.86-9.11-6.52-12.42c-0.66-0.59-0.71-1.61-0.12-2.27c0.49-0.55,1.27-0.68,1.9-0.37
						C25.18-554.8,37.91-554.64,41.72-554.63z"/>
				</defs>
				<clipPath id="SVGID_56_">
					<use xlink:href="#SVGID_55_"  style="overflow:visible;"/>
				</clipPath>
			</g>
		</g>
		<g>
			<g>
				<defs>
					<ellipse id="SVGID_57_" cx="42.24" cy="-568.56" rx="26.65" ry="26.76"/>
				</defs>
				<clipPath id="SVGID_58_">
					<use xlink:href="#SVGID_57_"  style="overflow:visible;"/>
				</clipPath>
			</g>
		</g>
		<g>
			<g>
				<defs>
					<path id="SVGID_59_" d="M39.36-543.26c-15.58,0-28.25-12.73-28.25-28.37S23.78-600,39.36-600s28.25,12.73,28.25,28.37
						S54.93-543.26,39.36-543.26z M39.36-596.79c-13.81,0-25.05,11.29-25.05,25.16s11.24,25.16,25.05,25.16s25.05-11.29,25.05-25.16
						S53.17-596.79,39.36-596.79z"/>
				</defs>
				<clipPath id="SVGID_60_">
					<use xlink:href="#SVGID_59_"  style="overflow:visible;"/>
				</clipPath>
			</g>
		</g>
		<g>
			<g>
				<defs>
					<path id="SVGID_61_" d="M39.36-534.78c-4,0-7.87-0.82-11.5-2.45c-0.81-0.36-1.17-1.31-0.81-2.12s1.3-1.17,2.11-0.81
						c3.21,1.44,6.64,2.17,10.19,2.17s6.98-0.73,10.19-2.17c0.81-0.36,1.75,0,2.11,0.81s0,1.76-0.81,2.12
						C47.23-535.6,43.36-534.78,39.36-534.78"/>
				</defs>
				<clipPath id="SVGID_62_">
					<use xlink:href="#SVGID_61_"  style="overflow:visible;"/>
				</clipPath>
			</g>
		</g>
		<g>
			<g>
				<defs>
					<path id="SVGID_63_" d="M39.36-527.39c-3.43,0-6.74-0.82-9.85-2.45c-0.69-0.36-1-1.31-0.69-2.12s1.12-1.18,1.81-0.81
						c2.75,1.44,5.69,2.17,8.73,2.17s5.98-0.73,8.73-2.17c0.69-0.36,1.5,0,1.81,0.81s0,1.76-0.69,2.12
						C46.1-528.21,42.78-527.39,39.36-527.39"/>
				</defs>
				<clipPath id="SVGID_64_">
					<use xlink:href="#SVGID_63_"  style="overflow:visible;"/>
				</clipPath>
			</g>
		</g>
		<g>
			<g>
				<defs>
					<path id="SVGID_65_" d="M39.36-520c-2.38,0-4.75-0.3-7.06-0.9c-0.86-0.22-1.37-1.1-1.15-1.96c0.22-0.86,1.09-1.37,1.95-1.15
						c4.1,1.06,8.43,1.06,12.53,0c0.85-0.22,1.73,0.3,1.95,1.15c0.22,0.86-0.29,1.73-1.15,1.96C44.11-520.3,41.73-520,39.36-520"/>
				</defs>
				<clipPath id="SVGID_66_">
					<use xlink:href="#SVGID_65_"  style="overflow:visible;"/>
				</clipPath>
			</g>
		</g>
		<g>
			<g>
				<defs>
					<path id="SVGID_67_" d="M29.39-539.11c-0.84-5.79-3.5-10.65-7.95-14.49c-0.69-0.6-1.76-0.54-2.38,0.12
						c-0.62,0.67-0.56,1.69,0.13,2.29c3.85,3.33,6.13,7.49,6.86,12.53c0.13,0.89,0.98,1.5,1.9,1.38
						C28.88-537.41,29.52-538.22,29.39-539.11z"/>
				</defs>
				<clipPath id="SVGID_68_">
					<use xlink:href="#SVGID_67_"  style="overflow:visible;"/>
				</clipPath>
			</g>
		</g>
		<g>
			<g>
				<defs>
					<path id="SVGID_69_" d="M48.57-539.11c0.84-5.79,3.5-10.65,7.95-14.49c0.69-0.6,1.76-0.54,2.38,0.12
						c0.62,0.67,0.56,1.69-0.13,2.29c-3.85,3.33-6.13,7.49-6.86,12.53c-0.13,0.89-0.98,1.5-1.9,1.38
						C49.08-537.41,48.44-538.22,48.57-539.11z"/>
				</defs>
				<clipPath id="SVGID_70_">
					<use xlink:href="#SVGID_69_"  style="overflow:visible;"/>
				</clipPath>
			</g>
		</g>
	</g>
</g>
</svg>
