<?xml version="1.0" encoding="utf-8"?>
<!-- Generator: Adobe Illustrator 24.0.3, SVG Export Plug-In . SVG Version: 6.00 Build 0)  -->
<svg version="1.1" id="Layer_1" xmlns="http://www.w3.org/2000/svg" xmlns:xlink="http://www.w3.org/1999/xlink" x="0px" y="0px"
	 viewBox="0 0 80 80" style="enable-background:new 0 0 80 80;" xml:space="preserve">
<style type="text/css">
	.st0{fill:#B2E5F6;}
	.st1{fill:#232F3E;}
	.st2{fill:#15383F;}
	.st3{display:none;}
	.st4{display:inline;}
</style>
<g>
	<path class="st0" d="M19.12,46.81c-8.19,0-14.83,6.64-14.83,14.83s6.64,14.83,14.83,14.83s14.83-6.64,14.83-14.83l0,0
		C33.95,53.45,27.31,46.81,19.12,46.81z M20.91,65.49h-9.38v-2.97c0.01-2.09,1.4-3.91,3.4-4.49c-1.53-0.71-2.2-2.53-1.49-4.06
		c0.71-1.53,2.53-2.2,4.06-1.49s2.2,2.53,1.49,4.06c-0.3,0.66-0.83,1.18-1.49,1.49c2.01,0.58,3.39,2.4,3.4,4.49L20.91,65.49
		L20.91,65.49z"/>
	<path class="st0" d="M57.12,22.56c0-8.19-6.64-14.83-14.83-14.83s-14.83,6.64-14.83,14.83S34.1,37.4,42.29,37.4
		S57.12,30.75,57.12,22.56z M44.09,26.42h-9.38v-2.97c0.01-2.09,1.4-3.91,3.4-4.49c-1.53-0.71-2.2-2.53-1.49-4.06
		s2.53-2.2,4.06-1.49c1.54,0.71,2.2,2.53,1.49,4.06c-0.3,0.66-0.83,1.18-1.49,1.49c2.01,0.58,3.39,2.4,3.4,4.49L44.09,26.42
		L44.09,26.42z"/>
	<path class="st0" d="M65.17,46.81c-8.19,0-14.83,6.64-14.83,14.83s6.64,14.83,14.83,14.83S80,69.83,80,61.64
		S73.36,46.81,65.17,46.81z M66.96,65.49h-9.37v-2.97c0.01-2.09,1.4-3.91,3.4-4.49c-1.53-0.71-2.2-2.53-1.49-4.06
		c0.71-1.53,2.53-2.2,4.06-1.49s2.2,2.53,1.49,4.06c-0.3,0.66-0.83,1.18-1.49,1.49c2.01,0.58,3.39,2.4,3.4,4.49V65.49z"/>
	<path class="st1" d="M62.28,42.64c-1.9,0.01-3.78,0.35-5.56,1.01L49.17,32.7c7.14-5.4,8.56-15.57,3.16-22.72S36.76,1.41,29.61,6.81
		s-8.56,15.57-3.16,22.72c0.9,1.19,1.97,2.26,3.16,3.16l-7.57,11.05c-8.35-3.22-17.74,0.94-20.95,9.3s0.94,17.74,9.3,20.95
		s17.74-0.94,20.95-9.3c0.55-1.42,0.9-2.92,1.02-4.45h13.76C46.9,69.17,54.75,75.77,63.67,75c8.92-0.78,15.52-8.63,14.75-17.55
		C77.7,49.07,70.68,42.63,62.28,42.64L62.28,42.64L62.28,42.64z M25.95,19.78c0-7.42,6.02-13.44,13.44-13.44s13.44,6.02,13.44,13.44
		S46.82,33.21,39.4,33.22C31.98,33.21,25.96,27.2,25.95,19.78z M31.97,34.15c4.65,2.42,10.18,2.42,14.83,0l7.31,10.66
		c-4.56,2.65-7.55,7.36-8.02,12.62H32.36c-0.46-5.16-3.36-9.79-7.8-12.46L31.97,34.15z M16.21,72.25c-7.42,0-13.43-6.02-13.42-13.45
		s6.02-13.43,13.45-13.43c7.42,0.01,13.43,6.02,13.43,13.45c0,0.01,0,0.02,0,0.02c-0.01,7.42-6.02,13.42-13.44,13.44L16.21,72.25z
		 M62.27,72.25c-7.42,0-13.44-6.02-13.44-13.44s6.02-13.44,13.44-13.44s13.44,6.02,13.44,13.44c0.01,7.43-6,13.46-13.43,13.47
		L62.27,72.25z"/>
	<path class="st2" d="M65.98,57.73c1.36-2.05,0.8-4.81-1.25-6.17c-2.05-1.36-4.81-0.8-6.17,1.25c-0.99,1.49-0.99,3.42,0,4.92
		c-1.49,1.14-2.37,2.91-2.38,4.79v2.98c0,0.77,0.62,1.39,1.39,1.39h9.39c0.77,0,1.39-0.62,1.39-1.39v-2.98
		C68.35,60.65,67.47,58.88,65.98,57.73z M62.28,53.61c0.92,0,1.67,0.74,1.67,1.67c0,0.92-0.74,1.67-1.67,1.67
		c-0.92,0-1.67-0.74-1.67-1.67S61.36,53.61,62.28,53.61L62.28,53.61z M65.58,64.11h-6.6v-1.58c0-1.31,0.78-2.5,1.98-3.02
		c0.85,0.3,1.78,0.3,2.62,0c1.2,0.52,1.98,1.71,1.98,3.02L65.58,64.11z"/>
	<path class="st2" d="M34.71,27.82h9.38c0.77,0,1.39-0.62,1.39-1.39v-2.98c-0.01-1.88-0.88-3.65-2.38-4.79
		c1.36-2.05,0.8-4.81-1.25-6.17s-4.81-0.8-6.17,1.25c-0.99,1.49-0.99,3.42,0,4.92c-1.49,1.14-2.37,2.91-2.38,4.79v2.98
		C33.32,27.2,33.94,27.82,34.71,27.82L34.71,27.82z M42.7,25.04h-6.6v-1.58c0-1.31,0.78-2.5,1.98-3.02c0.85,0.3,1.78,0.3,2.62,0
		c1.2,0.52,1.98,1.71,1.98,3.02L42.7,25.04z M39.4,14.52c0.92,0,1.67,0.74,1.67,1.67s-0.74,1.67-1.67,1.67
		c-0.92,0-1.67-0.74-1.67-1.67l0,0C37.73,15.28,38.48,14.52,39.4,14.52z"/>
	<path class="st2" d="M19.93,57.73c1.36-2.05,0.8-4.81-1.25-6.17s-4.81-0.8-6.17,1.25c-0.99,1.49-0.99,3.42,0,4.92
		c-1.49,1.14-2.37,2.91-2.38,4.79v2.98c0,0.77,0.62,1.39,1.39,1.39h9.38c0.77,0,1.39-0.62,1.39-1.39v-2.98
		C22.3,60.65,21.42,58.88,19.93,57.73z M16.22,53.61c0.92,0,1.67,0.74,1.67,1.67s-0.74,1.67-1.67,1.67c-0.92,0-1.67-0.74-1.67-1.67
		l0,0C14.55,54.36,15.3,53.61,16.22,53.61z M19.52,64.11h-6.6v-1.58c0-1.31,0.78-2.5,1.98-3.02c0.85,0.3,1.78,0.3,2.62,0
		c1.2,0.52,1.98,1.71,1.98,3.02L19.52,64.11z"/>
</g>
<g id="Pound" class="st3">
	<g class="st4">
		<g>
			<g>
				<defs>
					<path id="SVGID_1_" d="M41.72,145.37h0.68c4.01-0.01,18.46-0.15,18.49,0.75c0.3,0.07,0.59,0.24,0.81,0.49
						c0.59,0.66,0.54,1.68-0.12,2.27c-3.66,3.3-5.83,7.42-6.52,12.42c-0.09,0.68-0.59,1.19-1.22,1.34
						c-0.09,0.06-0.18,0.12-0.28,0.16c-3.63,1.63-7.5,2.45-11.5,2.45s-7.87-0.82-11.5-2.45c-0.04-0.02-0.08-0.06-0.13-0.13
						c-0.71-0.09-1.29-0.64-1.39-1.37c-0.69-5-2.86-9.11-6.52-12.42c-0.66-0.59-0.71-1.61-0.12-2.27c0.49-0.55,1.27-0.68,1.9-0.37
						C25.18,145.2,37.91,145.36,41.72,145.37z"/>
				</defs>
				<clipPath id="SVGID_2_">
					<use xlink:href="#SVGID_1_"  style="overflow:visible;"/>
				</clipPath>
			</g>
		</g>
		<g>
			<g>
				<defs>
					<ellipse id="SVGID_3_" cx="42.24" cy="131.44" rx="26.65" ry="26.76"/>
				</defs>
				<clipPath id="SVGID_4_">
					<use xlink:href="#SVGID_3_"  style="overflow:visible;"/>
				</clipPath>
			</g>
		</g>
		<g>
			<g>
				<defs>
					<path id="SVGID_5_" d="M39.36,156.74c-15.58,0-28.25-12.73-28.25-28.37S23.78,100,39.36,100s28.25,12.73,28.25,28.37
						S54.93,156.74,39.36,156.74z M39.36,103.21c-13.81,0-25.05,11.29-25.05,25.16s11.24,25.16,25.05,25.16s25.05-11.29,25.05-25.16
						S53.17,103.21,39.36,103.21z"/>
				</defs>
				<clipPath id="SVGID_6_">
					<use xlink:href="#SVGID_5_"  style="overflow:visible;"/>
				</clipPath>
			</g>
		</g>
		<g>
			<g>
				<defs>
					<path id="SVGID_7_" d="M39.36,165.22c-4,0-7.87-0.82-11.5-2.45c-0.81-0.36-1.17-1.31-0.81-2.12s1.3-1.17,2.11-0.81
						c3.21,1.44,6.64,2.17,10.19,2.17s6.98-0.73,10.19-2.17c0.81-0.36,1.75,0,2.11,0.81s0,1.76-0.81,2.12
						C47.23,164.4,43.36,165.22,39.36,165.22"/>
				</defs>
				<clipPath id="SVGID_8_">
					<use xlink:href="#SVGID_7_"  style="overflow:visible;"/>
				</clipPath>
			</g>
		</g>
		<g>
			<g>
				<defs>
					<path id="SVGID_9_" d="M39.36,172.61c-3.43,0-6.74-0.82-9.85-2.45c-0.69-0.36-1-1.31-0.69-2.12s1.12-1.18,1.81-0.81
						c2.75,1.44,5.69,2.17,8.73,2.17s5.98-0.73,8.73-2.17c0.69-0.36,1.5,0,1.81,0.81s0,1.76-0.69,2.12
						C46.1,171.79,42.78,172.61,39.36,172.61"/>
				</defs>
				<clipPath id="SVGID_10_">
					<use xlink:href="#SVGID_9_"  style="overflow:visible;"/>
				</clipPath>
			</g>
		</g>
		<g>
			<g>
				<defs>
					<path id="SVGID_11_" d="M39.36,180c-2.38,0-4.75-0.3-7.06-0.9c-0.86-0.22-1.37-1.1-1.15-1.96c0.22-0.86,1.09-1.37,1.95-1.15
						c4.1,1.06,8.43,1.06,12.53,0c0.85-0.22,1.73,0.3,1.95,1.15c0.22,0.86-0.29,1.73-1.15,1.96C44.11,179.7,41.73,180,39.36,180"/>
				</defs>
				<clipPath id="SVGID_12_">
					<use xlink:href="#SVGID_11_"  style="overflow:visible;"/>
				</clipPath>
			</g>
		</g>
		<g>
			<g>
				<defs>
					<path id="SVGID_13_" d="M29.39,160.89c-0.84-5.79-3.5-10.65-7.95-14.49c-0.69-0.6-1.76-0.54-2.38,0.12
						c-0.62,0.67-0.56,1.69,0.13,2.29c3.85,3.33,6.13,7.49,6.86,12.53c0.13,0.89,0.98,1.5,1.9,1.38
						C28.88,162.59,29.52,161.78,29.39,160.89z"/>
				</defs>
				<clipPath id="SVGID_14_">
					<use xlink:href="#SVGID_13_"  style="overflow:visible;"/>
				</clipPath>
			</g>
		</g>
		<g>
			<g>
				<defs>
					<path id="SVGID_15_" d="M48.57,160.89c0.84-5.79,3.5-10.65,7.95-14.49c0.69-0.6,1.76-0.54,2.38,0.12
						c0.62,0.67,0.56,1.69-0.13,2.29c-3.85,3.33-6.13,7.49-6.86,12.53c-0.13,0.89-0.98,1.5-1.9,1.38
						C49.08,162.59,48.44,161.78,48.57,160.89z"/>
				</defs>
				<clipPath id="SVGID_16_">
					<use xlink:href="#SVGID_15_"  style="overflow:visible;"/>
				</clipPath>
			</g>
		</g>
	</g>
</g>
<g id="Yen" class="st3">
	<g class="st4">
		<g>
			<g>
				<defs>
					<path id="SVGID_17_" d="M41.72,145.37h0.68c4.01-0.01,18.46-0.15,18.49,0.75c0.3,0.07,0.59,0.24,0.81,0.49
						c0.59,0.66,0.54,1.68-0.12,2.27c-3.66,3.3-5.83,7.42-6.52,12.42c-0.09,0.68-0.59,1.19-1.22,1.34
						c-0.09,0.06-0.18,0.12-0.28,0.16c-3.63,1.63-7.5,2.45-11.5,2.45s-7.87-0.82-11.5-2.45c-0.04-0.02-0.08-0.06-0.13-0.13
						c-0.71-0.09-1.29-0.64-1.39-1.37c-0.69-5-2.86-9.11-6.52-12.42c-0.66-0.59-0.71-1.61-0.12-2.27c0.49-0.55,1.27-0.68,1.9-0.37
						C25.18,145.2,37.91,145.36,41.72,145.37z"/>
				</defs>
				<clipPath id="SVGID_18_">
					<use xlink:href="#SVGID_17_"  style="overflow:visible;"/>
				</clipPath>
			</g>
		</g>
		<g>
			<g>
				<defs>
					<ellipse id="SVGID_19_" cx="42.24" cy="131.44" rx="26.65" ry="26.76"/>
				</defs>
				<clipPath id="SVGID_20_">
					<use xlink:href="#SVGID_19_"  style="overflow:visible;"/>
				</clipPath>
			</g>
		</g>
		<g>
			<g>
				<defs>
					<path id="SVGID_21_" d="M39.36,156.74c-15.58,0-28.25-12.73-28.25-28.37S23.78,100,39.36,100s28.25,12.73,28.25,28.37
						S54.93,156.74,39.36,156.74z M39.36,103.21c-13.81,0-25.05,11.29-25.05,25.16s11.24,25.16,25.05,25.16s25.05-11.29,25.05-25.16
						S53.17,103.21,39.36,103.21z"/>
				</defs>
				<clipPath id="SVGID_22_">
					<use xlink:href="#SVGID_21_"  style="overflow:visible;"/>
				</clipPath>
			</g>
		</g>
		<g>
			<g>
				<defs>
					<path id="SVGID_23_" d="M39.36,165.22c-4,0-7.87-0.82-11.5-2.45c-0.81-0.36-1.17-1.31-0.81-2.12s1.3-1.17,2.11-0.81
						c3.21,1.44,6.64,2.17,10.19,2.17s6.98-0.73,10.19-2.17c0.81-0.36,1.75,0,2.11,0.81s0,1.76-0.81,2.12
						C47.23,164.4,43.36,165.22,39.36,165.22"/>
				</defs>
				<clipPath id="SVGID_24_">
					<use xlink:href="#SVGID_23_"  style="overflow:visible;"/>
				</clipPath>
			</g>
		</g>
		<g>
			<g>
				<defs>
					<path id="SVGID_25_" d="M39.36,172.61c-3.43,0-6.74-0.82-9.85-2.45c-0.69-0.36-1-1.31-0.69-2.12s1.12-1.18,1.81-0.81
						c2.75,1.44,5.69,2.17,8.73,2.17s5.98-0.73,8.73-2.17c0.69-0.36,1.5,0,1.81,0.81s0,1.76-0.69,2.12
						C46.1,171.79,42.78,172.61,39.36,172.61"/>
				</defs>
				<clipPath id="SVGID_26_">
					<use xlink:href="#SVGID_25_"  style="overflow:visible;"/>
				</clipPath>
			</g>
		</g>
		<g>
			<g>
				<defs>
					<path id="SVGID_27_" d="M39.36,180c-2.38,0-4.75-0.3-7.06-0.9c-0.86-0.22-1.37-1.1-1.15-1.96c0.22-0.86,1.09-1.37,1.95-1.15
						c4.1,1.06,8.43,1.06,12.53,0c0.85-0.22,1.73,0.3,1.95,1.15c0.22,0.86-0.29,1.73-1.15,1.96C44.11,179.7,41.73,180,39.36,180"/>
				</defs>
				<clipPath id="SVGID_28_">
					<use xlink:href="#SVGID_27_"  style="overflow:visible;"/>
				</clipPath>
			</g>
		</g>
		<g>
			<g>
				<defs>
					<path id="SVGID_29_" d="M29.39,160.89c-0.84-5.79-3.5-10.65-7.95-14.49c-0.69-0.6-1.76-0.54-2.38,0.12
						c-0.62,0.67-0.56,1.69,0.13,2.29c3.85,3.33,6.13,7.49,6.86,12.53c0.13,0.89,0.98,1.5,1.9,1.38
						C28.88,162.59,29.52,161.78,29.39,160.89z"/>
				</defs>
				<clipPath id="SVGID_30_">
					<use xlink:href="#SVGID_29_"  style="overflow:visible;"/>
				</clipPath>
			</g>
		</g>
		<g>
			<g>
				<defs>
					<path id="SVGID_31_" d="M48.57,160.89c0.84-5.79,3.5-10.65,7.95-14.49c0.69-0.6,1.76-0.54,2.38,0.12
						c0.62,0.67,0.56,1.69-0.13,2.29c-3.85,3.33-6.13,7.49-6.86,12.53c-0.13,0.89-0.98,1.5-1.9,1.38
						C49.08,162.59,48.44,161.78,48.57,160.89z"/>
				</defs>
				<clipPath id="SVGID_32_">
					<use xlink:href="#SVGID_31_"  style="overflow:visible;"/>
				</clipPath>
			</g>
		</g>
	</g>
</g>
<g id="Euro" class="st3">
	<g class="st4">
		<g>
			<g>
				<defs>
					<path id="SVGID_33_" d="M41.72,145.37h0.68c4.01-0.01,18.46-0.15,18.49,0.75c0.3,0.07,0.59,0.24,0.81,0.49
						c0.59,0.66,0.54,1.68-0.12,2.27c-3.66,3.3-5.83,7.42-6.52,12.42c-0.09,0.68-0.59,1.19-1.22,1.34
						c-0.09,0.06-0.18,0.12-0.28,0.16c-3.63,1.63-7.5,2.45-11.5,2.45s-7.87-0.82-11.5-2.45c-0.04-0.02-0.08-0.06-0.13-0.13
						c-0.71-0.09-1.29-0.64-1.39-1.37c-0.69-5-2.86-9.11-6.52-12.42c-0.66-0.59-0.71-1.61-0.12-2.27c0.49-0.55,1.27-0.68,1.9-0.37
						C25.18,145.2,37.91,145.36,41.72,145.37z"/>
				</defs>
				<clipPath id="SVGID_34_">
					<use xlink:href="#SVGID_33_"  style="overflow:visible;"/>
				</clipPath>
			</g>
		</g>
		<g>
			<g>
				<defs>
					<ellipse id="SVGID_35_" cx="42.24" cy="131.44" rx="26.65" ry="26.76"/>
				</defs>
				<clipPath id="SVGID_36_">
					<use xlink:href="#SVGID_35_"  style="overflow:visible;"/>
				</clipPath>
			</g>
		</g>
		<g>
			<g>
				<defs>
					<path id="SVGID_37_" d="M39.36,156.74c-15.58,0-28.25-12.73-28.25-28.37S23.78,100,39.36,100s28.25,12.73,28.25,28.37
						S54.93,156.74,39.36,156.74z M39.36,103.21c-13.81,0-25.05,11.29-25.05,25.16s11.24,25.16,25.05,25.16s25.05-11.29,25.05-25.16
						S53.17,103.21,39.36,103.21z"/>
				</defs>
				<clipPath id="SVGID_38_">
					<use xlink:href="#SVGID_37_"  style="overflow:visible;"/>
				</clipPath>
			</g>
		</g>
		<g>
			<g>
				<defs>
					<path id="SVGID_39_" d="M39.36,165.22c-4,0-7.87-0.82-11.5-2.45c-0.81-0.36-1.17-1.31-0.81-2.12s1.3-1.17,2.11-0.81
						c3.21,1.44,6.64,2.17,10.19,2.17s6.98-0.73,10.19-2.17c0.81-0.36,1.75,0,2.11,0.81s0,1.76-0.81,2.12
						C47.23,164.4,43.36,165.22,39.36,165.22"/>
				</defs>
				<clipPath id="SVGID_40_">
					<use xlink:href="#SVGID_39_"  style="overflow:visible;"/>
				</clipPath>
			</g>
		</g>
		<g>
			<g>
				<defs>
					<path id="SVGID_41_" d="M39.36,172.61c-3.43,0-6.74-0.82-9.85-2.45c-0.69-0.36-1-1.31-0.69-2.12s1.12-1.18,1.81-0.81
						c2.75,1.44,5.69,2.17,8.73,2.17s5.98-0.73,8.73-2.17c0.69-0.36,1.5,0,1.81,0.81s0,1.76-0.69,2.12
						C46.1,171.79,42.78,172.61,39.36,172.61"/>
				</defs>
				<clipPath id="SVGID_42_">
					<use xlink:href="#SVGID_41_"  style="overflow:visible;"/>
				</clipPath>
			</g>
		</g>
		<g>
			<g>
				<defs>
					<path id="SVGID_43_" d="M39.36,180c-2.38,0-4.75-0.3-7.06-0.9c-0.86-0.22-1.37-1.1-1.15-1.96c0.22-0.86,1.09-1.37,1.95-1.15
						c4.1,1.06,8.43,1.06,12.53,0c0.85-0.22,1.73,0.3,1.95,1.15c0.22,0.86-0.29,1.73-1.15,1.96C44.11,179.7,41.73,180,39.36,180"/>
				</defs>
				<clipPath id="SVGID_44_">
					<use xlink:href="#SVGID_43_"  style="overflow:visible;"/>
				</clipPath>
			</g>
		</g>
		<g>
			<g>
				<defs>
					<path id="SVGID_45_" d="M29.39,160.89c-0.84-5.79-3.5-10.65-7.95-14.49c-0.69-0.6-1.76-0.54-2.38,0.12
						c-0.62,0.67-0.56,1.69,0.13,2.29c3.85,3.33,6.13,7.49,6.86,12.53c0.13,0.89,0.98,1.5,1.9,1.38
						C28.88,162.59,29.52,161.78,29.39,160.89z"/>
				</defs>
				<clipPath id="SVGID_46_">
					<use xlink:href="#SVGID_45_"  style="overflow:visible;"/>
				</clipPath>
			</g>
		</g>
		<g>
			<g>
				<defs>
					<path id="SVGID_47_" d="M48.57,160.89c0.84-5.79,3.5-10.65,7.95-14.49c0.69-0.6,1.76-0.54,2.38,0.12
						c0.62,0.67,0.56,1.69-0.13,2.29c-3.85,3.33-6.13,7.49-6.86,12.53c-0.13,0.89-0.98,1.5-1.9,1.38
						C49.08,162.59,48.44,161.78,48.57,160.89z"/>
				</defs>
				<clipPath id="SVGID_48_">
					<use xlink:href="#SVGID_47_"  style="overflow:visible;"/>
				</clipPath>
			</g>
		</g>
	</g>
</g>
<g id="Rupee" class="st3">
	<g class="st4">
		<g>
			<g>
				<defs>
					<path id="SVGID_49_" d="M41.72,145.37h0.68c4.01-0.01,18.46-0.15,18.49,0.75c0.3,0.07,0.59,0.24,0.81,0.49
						c0.59,0.66,0.54,1.68-0.12,2.27c-3.66,3.3-5.83,7.42-6.52,12.42c-0.09,0.68-0.59,1.19-1.22,1.34
						c-0.09,0.06-0.18,0.12-0.28,0.16c-3.63,1.63-7.5,2.45-11.5,2.45s-7.87-0.82-11.5-2.45c-0.04-0.02-0.08-0.06-0.13-0.13
						c-0.71-0.09-1.29-0.64-1.39-1.37c-0.69-5-2.86-9.11-6.52-12.42c-0.66-0.59-0.71-1.61-0.12-2.27c0.49-0.55,1.27-0.68,1.9-0.37
						C25.18,145.2,37.91,145.36,41.72,145.37z"/>
				</defs>
				<clipPath id="SVGID_50_">
					<use xlink:href="#SVGID_49_"  style="overflow:visible;"/>
				</clipPath>
			</g>
		</g>
		<g>
			<g>
				<defs>
					<ellipse id="SVGID_51_" cx="42.24" cy="131.44" rx="26.65" ry="26.76"/>
				</defs>
				<clipPath id="SVGID_52_">
					<use xlink:href="#SVGID_51_"  style="overflow:visible;"/>
				</clipPath>
			</g>
		</g>
		<g>
			<g>
				<defs>
					<path id="SVGID_53_" d="M39.36,156.74c-15.58,0-28.25-12.73-28.25-28.37S23.78,100,39.36,100s28.25,12.73,28.25,28.37
						S54.93,156.74,39.36,156.74z M39.36,103.21c-13.81,0-25.05,11.29-25.05,25.16s11.24,25.16,25.05,25.16s25.05-11.29,25.05-25.16
						S53.17,103.21,39.36,103.21z"/>
				</defs>
				<clipPath id="SVGID_54_">
					<use xlink:href="#SVGID_53_"  style="overflow:visible;"/>
				</clipPath>
			</g>
		</g>
		<g>
			<g>
				<defs>
					<path id="SVGID_55_" d="M39.36,165.22c-4,0-7.87-0.82-11.5-2.45c-0.81-0.36-1.17-1.31-0.81-2.12s1.3-1.17,2.11-0.81
						c3.21,1.44,6.64,2.17,10.19,2.17s6.98-0.73,10.19-2.17c0.81-0.36,1.75,0,2.11,0.81s0,1.76-0.81,2.12
						C47.23,164.4,43.36,165.22,39.36,165.22"/>
				</defs>
				<clipPath id="SVGID_56_">
					<use xlink:href="#SVGID_55_"  style="overflow:visible;"/>
				</clipPath>
			</g>
		</g>
		<g>
			<g>
				<defs>
					<path id="SVGID_57_" d="M39.36,172.61c-3.43,0-6.74-0.82-9.85-2.45c-0.69-0.36-1-1.31-0.69-2.12s1.12-1.18,1.81-0.81
						c2.75,1.44,5.69,2.17,8.73,2.17s5.98-0.73,8.73-2.17c0.69-0.36,1.5,0,1.81,0.81s0,1.76-0.69,2.12
						C46.1,171.79,42.78,172.61,39.36,172.61"/>
				</defs>
				<clipPath id="SVGID_58_">
					<use xlink:href="#SVGID_57_"  style="overflow:visible;"/>
				</clipPath>
			</g>
		</g>
		<g>
			<g>
				<defs>
					<path id="SVGID_59_" d="M39.36,180c-2.38,0-4.75-0.3-7.06-0.9c-0.86-0.22-1.37-1.1-1.15-1.96c0.22-0.86,1.09-1.37,1.95-1.15
						c4.1,1.06,8.43,1.06,12.53,0c0.85-0.22,1.73,0.3,1.95,1.15c0.22,0.86-0.29,1.73-1.15,1.96C44.11,179.7,41.73,180,39.36,180"/>
				</defs>
				<clipPath id="SVGID_60_">
					<use xlink:href="#SVGID_59_"  style="overflow:visible;"/>
				</clipPath>
			</g>
		</g>
		<g>
			<g>
				<defs>
					<path id="SVGID_61_" d="M29.39,160.89c-0.84-5.79-3.5-10.65-7.95-14.49c-0.69-0.6-1.76-0.54-2.38,0.12
						c-0.62,0.67-0.56,1.69,0.13,2.29c3.85,3.33,6.13,7.49,6.86,12.53c0.13,0.89,0.98,1.5,1.9,1.38
						C28.88,162.59,29.52,161.78,29.39,160.89z"/>
				</defs>
				<clipPath id="SVGID_62_">
					<use xlink:href="#SVGID_61_"  style="overflow:visible;"/>
				</clipPath>
			</g>
		</g>
		<g>
			<g>
				<defs>
					<path id="SVGID_63_" d="M48.57,160.89c0.84-5.79,3.5-10.65,7.95-14.49c0.69-0.6,1.76-0.54,2.38,0.12
						c0.62,0.67,0.56,1.69-0.13,2.29c-3.85,3.33-6.13,7.49-6.86,12.53c-0.13,0.89-0.98,1.5-1.9,1.38
						C49.08,162.59,48.44,161.78,48.57,160.89z"/>
				</defs>
				<clipPath id="SVGID_64_">
					<use xlink:href="#SVGID_63_"  style="overflow:visible;"/>
				</clipPath>
			</g>
		</g>
	</g>
</g>
</svg>
